<svg width="149" height="149" xmlns="http://www.w3.org/2000/svg" xmlns:xlink="http://www.w3.org/1999/xlink" xml:space="preserve" overflow="hidden"><g transform="translate(-227 -179)"><path d="M251.717 254.004 251.717 213.65C251.717 208.507 255.886 204.338 261.029 204.338L261.029 204.338C266.173 204.338 270.342 208.507 270.342 213.65L270.342 254.004" fill="#307FE2"/><path d="M270.342 254.004 270.342 294.359C270.342 299.501 266.173 303.671 261.029 303.671L261.029 303.671C255.886 303.671 251.717 299.501 251.717 294.359L251.717 254.004" fill="#307FE2"/><path d="M292.071 254.004 292.071 213.65C292.071 208.507 296.24 204.338 301.384 204.338L301.384 204.338C306.526 204.338 310.696 208.507 310.696 213.65L310.696 254.004" fill="#307FE2"/><path d="M310.696 254.004 310.696 294.359C310.696 299.501 306.526 303.671 301.384 303.671L301.384 303.671C296.24 303.671 292.071 299.501 292.071 294.359L292.071 254.004" fill="#307FE2"/><path d="M332.425 254.004 332.425 213.65C332.425 208.507 336.595 204.338 341.738 204.338L341.738 204.338C346.881 204.338 351.05 208.507 351.05 213.65L351.05 254.004" fill="#307FE2"/><path d="M351.05 254.004 351.05 294.359C351.05 299.501 346.881 303.671 341.738 303.671L341.738 303.671C336.595 303.671 332.425 299.501 332.425 294.359L332.425 254.004" fill="#307FE2"/></g></svg>