<svg version="1.2" xmlns="http://www.w3.org/2000/svg" viewBox="0 0 192 192" width="128" height="128">
	<title>icon-fortiweb-dark-svg</title>
	<defs>
		<clipPath clipPathUnits="userSpaceOnUse" id="cp1">
			<path d="m0 0h192v192h-192z"/>
		</clipPath>
	</defs>
	<style>
		.s0 { fill: none;stroke: #ffffff;stroke-width: 8 } 
		.s1 { fill: #307fe2 } 
	</style>
	<g id="Clip-Path" clip-path="url(#cp1)">
		<g id="Layer">
			<path id="Layer" class="s0" d="m109.8 146.7c-7.3 2.1-14.9 2.5-22.3 1.3"/>
			<path id="Layer" class="s0" d="m133.5 59.5c-17.6-18.1-45.6-21.1-66.6-7.1"/>
			<path id="Layer" class="s0" d="m43.4 98.2c0-0.7 0-1.4 0-2.1 0-17.6 8.8-34 23.5-43.7"/>
			<path id="Layer" class="s0" d="m87.5 148c-24.7-4-43-24.8-44-49.8"/>
			<path id="Layer" class="s0" d="m146.1 80.8c8.4 27.7-7.2 57.1-34.9 65.5q-0.7 0.3-1.4 0.4"/>
			<path id="Layer" class="s0" d="m133.5 59.5c5.8 6 10.1 13.3 12.6 21.3"/>
			<path id="Layer" class="s0" d="m146.1 80.8c-9.1-5.7-19.4-9.4-30-11"/>
			<path id="Layer" class="s0" d="m43.4 98.2c5.7-7.1 12.6-13.1 20.4-17.8"/>
			<path id="Layer" class="s0" d="m116.1 69.8c-18.2-2.6-36.7 1.1-52.3 10.6"/>
			<path id="Layer" class="s0" d="m72.5 50.5c-2.2 7.4-3.3 15-3.3 22.6q0 2.8 0.2 5.4"/>
			<path id="Layer" class="s0" d="m91.5 128c-13-13.3-20.9-30.9-22.1-49.5"/>
			<path id="Layer" class="s0" d="m91.5 128c6.9 7.1 15 12.8 23.9 16.9"/>
			<path id="Layer" class="s0" d="m85.9 129.9c0.5-23.5 11.6-45.6 30.2-60.1"/>
			<path id="Layer" class="s0" d="m133.5 59.5c-6.2 2.7-12.1 6.2-17.4 10.3"/>
			<path id="Layer" class="s0" d="m85.9 129.9q0 1 0 2c0 5.4 0.5 10.8 1.6 16.1"/>
			<path id="Layer" class="s1" d="m126 69.9c0 5.2-4.2 9.4-9.4 9.4-5.1 0-9.3-4.2-9.3-9.4 0-5.2 4.2-9.3 9.3-9.3 5.2 0 9.4 4.1 9.4 9.3z"/>
			<path id="Layer" class="s1" d="m78.2 77.4c0 5.2-4.2 9.4-9.3 9.4-5.2 0-9.4-4.2-9.4-9.4 0-5.1 4.2-9.3 9.4-9.3 5.1 0 9.3 4.2 9.3 9.3z"/>
			<path id="Layer" class="s1" d="m95.1 124.2c0 5.2-4.2 9.4-9.4 9.4-5.2 0-9.4-4.2-9.4-9.4 0-5.1 4.2-9.3 9.4-9.3 5.2 0 9.4 4.2 9.4 9.3z"/>
			<path id="Layer" class="s0" d="m182.1 106.8v-22.7c-11.7-4.3-19-5.3-22.8-14.3-3.6-9.1 0.8-15.1 6.1-26.2l-16.2-16.1c-11.1 5.2-17.4 9.6-26.3 6-9-3.9-10.3-11.3-14.3-22.8h-23c-4 11.5-5.2 18.9-14.1 22.8-9.1 3.6-15.2-0.8-26.5-6l-16.2 16.1c5.3 11.1 9.9 17.1 6.1 26.2-3.6 9-11.3 10-22.8 14.3v22.7c11.5 4.2 19.2 5.5 22.8 14.3 3.8 9.1-0.8 15.3-6.1 26.2l16.2 16.1c11.1-5.2 17.4-9.7 26.5-5.8 8.9 3.6 10.1 11 14.1 22.7h23c4-11.7 5.3-19.1 14.3-22.7 8.9-3.9 15 0.6 26.3 5.8l16.1-16.1c-5.2-11.1-9.6-17.1-6-26.2 3.8-8.8 11.3-10.1 22.8-14.3z"/>
		</g>
	</g>
</svg>