<svg version="1.2" xmlns="http://www.w3.org/2000/svg" viewBox="0 0 96 96" width="128" height="128">
	<title>icon-azure-svg</title>
	<defs>
		<linearGradient id="g1" x1="42.8" y1="12.7" x2="15.8" y2="92.6" gradientUnits="userSpaceOnUse">
			<stop offset="0" stop-color="#114a8b"/>
			<stop offset="1" stop-color="#0669bc"/>
		</linearGradient>
		<linearGradient id="g2" x1="51.3" y1="49.9" x2="45" y2="52" gradientUnits="userSpaceOnUse">
			<stop offset="0" stop-color="#000000" stop-opacity=".3"/>
			<stop offset=".071" stop-color="#000000" stop-opacity=".2"/>
			<stop offset=".321" stop-color="#000000" stop-opacity=".1"/>
			<stop offset=".623" stop-color="#000000" stop-opacity=".05"/>
			<stop offset="1" stop-color="#000000" stop-opacity="0"/>
		</linearGradient>
		<linearGradient id="g3" x1="47.8" y1="10.4" x2="77.5" y2="89.4" gradientUnits="userSpaceOnUse">
			<stop offset="0" stop-color="#3ccbf4"/>
			<stop offset="1" stop-color="#2892df"/>
		</linearGradient>
	</defs>
	<style>
		.s0 { fill: url(#g1) } 
		.s1 { fill: #0078d4 } 
		.s2 { fill: url(#g2) } 
		.s3 { fill: url(#g3) } 
	</style>
	<path id="Layer" class="s0" d="m33.3 6.5h26.1l-27.1 80.1q-0.2 0.6-0.5 1.2-0.4 0.5-1 0.9-0.5 0.4-1.1 0.6-0.6 0.2-1.3 0.2h-20.3q-1 0-1.8-0.5-0.9-0.5-1.5-1.3-0.6-0.8-0.8-1.8-0.1-1 0.2-1.9l25.2-74.6q0.2-0.6 0.6-1.2 0.4-0.5 0.9-0.9 0.5-0.4 1.2-0.6 0.6-0.2 1.2-0.2z"/>
	<path id="Layer" class="s1" d="m71.2 60.3h-41.3q-0.6 0-1.1 0.3-0.5 0.3-0.7 0.9-0.2 0.5-0.1 1.1 0.2 0.6 0.6 1l26.5 24.7q0.3 0.3 0.6 0.5 0.4 0.2 0.7 0.4 0.4 0.1 0.8 0.2 0.4 0.1 0.8 0.1h23.3z"/>
	<path id="Layer" class="s2" d="m33.3 6.5q-0.6 0-1.2 0.2-0.7 0.2-1.2 0.6-0.5 0.4-0.9 1-0.4 0.5-0.6 1.1l-25.1 74.5q-0.4 1-0.3 2 0.2 1 0.8 1.8 0.6 0.8 1.4 1.3 0.9 0.5 2 0.5h20.7q0.6-0.1 1.2-0.4 0.5-0.3 0.9-0.6 0.5-0.4 0.8-0.9 0.4-0.5 0.6-1l5-14.8 17.9 16.7q0.3 0.2 0.6 0.4 0.3 0.2 0.6 0.3 0.4 0.1 0.7 0.2 0.4 0.1 0.7 0.1h23.3l-10.2-29.2h-29.8l18.3-53.8z"/>
	<path id="Layer" class="s3" d="m66.6 9.4q-0.2-0.7-0.6-1.2-0.4-0.5-0.9-0.9-0.5-0.4-1.2-0.6-0.6-0.2-1.2-0.2h-29.1q0.7 0 1.3 0.2 0.6 0.2 1.2 0.6 0.5 0.4 0.9 0.9 0.4 0.5 0.6 1.2l25.2 74.6q0.3 0.9 0.1 1.9-0.1 1-0.7 1.8-0.6 0.8-1.5 1.3-0.9 0.5-1.9 0.5h29.1q1 0 1.8-0.5 0.9-0.5 1.5-1.3 0.6-0.8 0.8-1.8 0.1-1-0.2-1.9z"/>
</svg>